<mxfile host="app.diagrams.net" modified="2022-10-30T23:13:07.839Z" agent="5.0 (Windows NT 10.0; Win64; x64) AppleWebKit/537.36 (KHTML, like Gecko) Chrome/106.0.0.0 Safari/537.36 Edg/106.0.1370.52" etag="d9OHdyiqsnqa9UZ6W-HN" version="20.5.1" type="github" pages="2">
  <diagram id="XUKZhDOBHszyGE8Y-52Q" name="Página-1">
    <mxGraphModel dx="2410" dy="1858" grid="1" gridSize="10" guides="1" tooltips="1" connect="1" arrows="1" fold="1" page="1" pageScale="1" pageWidth="827" pageHeight="1169" background="#114B5F" math="0" shadow="0">
      <root>
        <mxCell id="0" />
        <mxCell id="1" parent="0" />
        <mxCell id="5UQ342rU-_iULlsq_lib-7" style="edgeStyle=orthogonalEdgeStyle;rounded=0;orthogonalLoop=1;jettySize=auto;html=1;entryX=1;entryY=0.5;entryDx=0;entryDy=0;entryPerimeter=0;labelBackgroundColor=#114B5F;strokeColor=#028090;fontColor=#E4FDE1;fontFamily=Lucida Console;" edge="1" parent="1" source="5UQ342rU-_iULlsq_lib-1" target="5UQ342rU-_iULlsq_lib-6">
          <mxGeometry relative="1" as="geometry" />
        </mxCell>
        <mxCell id="5UQ342rU-_iULlsq_lib-1" value="&lt;font style=&quot;font-size: 24px;&quot; face=&quot;Times New Roman&quot;&gt;início&lt;/font&gt;" style="ellipse;whiteSpace=wrap;html=1;fillColor=#F45B69;strokeColor=#028090;fontColor=#E4FDE1;fontFamily=Lucida Console;" vertex="1" parent="1">
          <mxGeometry x="50" y="10" width="120" height="80" as="geometry" />
        </mxCell>
        <mxCell id="5UQ342rU-_iULlsq_lib-9" style="edgeStyle=orthogonalEdgeStyle;rounded=0;orthogonalLoop=1;jettySize=auto;html=1;labelBackgroundColor=#114B5F;strokeColor=#028090;fontColor=#E4FDE1;fontFamily=Lucida Console;" edge="1" parent="1" source="5UQ342rU-_iULlsq_lib-6" target="5UQ342rU-_iULlsq_lib-8">
          <mxGeometry relative="1" as="geometry" />
        </mxCell>
        <object label="&lt;font style=&quot;font-size: 14px;&quot;&gt;Bem-Vindos, Devs!&lt;/font&gt;" id="5UQ342rU-_iULlsq_lib-6">
          <mxCell style="shape=display;whiteSpace=wrap;html=1;direction=west;fillColor=#F45B69;strokeColor=#028090;fontColor=#E4FDE1;fontFamily=Lucida Console;fontSize=14;" vertex="1" parent="1">
            <mxGeometry x="230" y="22.5" width="85" height="65" as="geometry" />
          </mxCell>
        </object>
        <mxCell id="5UQ342rU-_iULlsq_lib-11" value="" style="edgeStyle=orthogonalEdgeStyle;rounded=0;orthogonalLoop=1;jettySize=auto;html=1;labelBackgroundColor=#114B5F;strokeColor=#028090;fontColor=#E4FDE1;fontFamily=Lucida Console;" edge="1" parent="1" source="5UQ342rU-_iULlsq_lib-8" target="5UQ342rU-_iULlsq_lib-10">
          <mxGeometry relative="1" as="geometry">
            <Array as="points">
              <mxPoint x="475" y="50" />
              <mxPoint x="475" y="48" />
            </Array>
          </mxGeometry>
        </mxCell>
        <mxCell id="5UQ342rU-_iULlsq_lib-8" value="&lt;font style=&quot;font-size: 14px;&quot;&gt;Insira sua idade:&lt;/font&gt;" style="shape=display;whiteSpace=wrap;html=1;direction=west;fillColor=#F45B69;strokeColor=#028090;fontColor=#E4FDE1;fontFamily=Lucida Console;" vertex="1" parent="1">
          <mxGeometry x="371" y="22.5" width="79" height="65" as="geometry" />
        </mxCell>
        <mxCell id="5UQ342rU-_iULlsq_lib-13" value="" style="edgeStyle=orthogonalEdgeStyle;rounded=0;orthogonalLoop=1;jettySize=auto;html=1;labelBackgroundColor=#114B5F;strokeColor=#028090;fontColor=#E4FDE1;fontFamily=Lucida Console;" edge="1" parent="1" source="5UQ342rU-_iULlsq_lib-10">
          <mxGeometry relative="1" as="geometry">
            <mxPoint x="660" y="47.5" as="targetPoint" />
          </mxGeometry>
        </mxCell>
        <mxCell id="5UQ342rU-_iULlsq_lib-10" value="&lt;font style=&quot;font-size: 14px;&quot;&gt;Idade&lt;/font&gt;" style="html=1;strokeWidth=2;shape=manualInput;whiteSpace=wrap;rounded=1;size=26;arcSize=11;fillColor=#F45B69;strokeColor=#028090;fontColor=#E4FDE1;fontFamily=Lucida Console;" vertex="1" parent="1">
          <mxGeometry x="500" y="17.5" width="100" height="65" as="geometry" />
        </mxCell>
        <mxCell id="5UQ342rU-_iULlsq_lib-22" value="" style="edgeStyle=orthogonalEdgeStyle;rounded=0;orthogonalLoop=1;jettySize=auto;html=1;labelBackgroundColor=#114B5F;strokeColor=#028090;fontColor=#E4FDE1;fontFamily=Lucida Console;" edge="1" parent="1" source="5UQ342rU-_iULlsq_lib-20" target="5UQ342rU-_iULlsq_lib-21">
          <mxGeometry relative="1" as="geometry" />
        </mxCell>
        <mxCell id="5UQ342rU-_iULlsq_lib-25" value="" style="edgeStyle=orthogonalEdgeStyle;rounded=0;orthogonalLoop=1;jettySize=auto;html=1;strokeColor=#028090;fontFamily=Lucida Console;fontColor=#E4FDE1;fillColor=#F45B69;" edge="1" parent="1" source="5UQ342rU-_iULlsq_lib-20" target="5UQ342rU-_iULlsq_lib-24">
          <mxGeometry relative="1" as="geometry" />
        </mxCell>
        <mxCell id="5UQ342rU-_iULlsq_lib-20" value="&lt;font style=&quot;font-size: 14px;&quot;&gt;idade&amp;gt;=18&lt;/font&gt;" style="rhombus;whiteSpace=wrap;html=1;fillColor=#F45B69;strokeColor=#028090;fontColor=#E4FDE1;fontFamily=Lucida Console;" vertex="1" parent="1">
          <mxGeometry x="670" y="7.5" width="90" height="90" as="geometry" />
        </mxCell>
        <mxCell id="5UQ342rU-_iULlsq_lib-21" value="&lt;font style=&quot;font-size: 14px;&quot;&gt;desculpe! é necessário ter 18 anos para participar do processo.&lt;/font&gt;" style="shape=display;whiteSpace=wrap;html=1;direction=west;fillColor=#F45B69;strokeColor=#028090;fontColor=#E4FDE1;fontFamily=Lucida Console;" vertex="1" parent="1">
          <mxGeometry x="798" y="20" width="87" height="80" as="geometry" />
        </mxCell>
        <mxCell id="5UQ342rU-_iULlsq_lib-23" value="&lt;font style=&quot;font-size: 18px;&quot;&gt;Não&lt;/font&gt;" style="text;html=1;align=center;verticalAlign=middle;resizable=0;points=[];autosize=1;strokeColor=none;fillColor=none;fontColor=#E4FDE1;fontFamily=Lucida Console;" vertex="1" parent="1">
          <mxGeometry x="740" y="10" width="60" height="40" as="geometry" />
        </mxCell>
        <mxCell id="5UQ342rU-_iULlsq_lib-28" value="" style="edgeStyle=orthogonalEdgeStyle;rounded=0;orthogonalLoop=1;jettySize=auto;html=1;strokeColor=#028090;fontFamily=Lucida Console;fontColor=#E4FDE1;fillColor=#F45B69;" edge="1" parent="1" source="5UQ342rU-_iULlsq_lib-24" target="5UQ342rU-_iULlsq_lib-27">
          <mxGeometry relative="1" as="geometry" />
        </mxCell>
        <mxCell id="5UQ342rU-_iULlsq_lib-30" value="" style="edgeStyle=orthogonalEdgeStyle;rounded=0;orthogonalLoop=1;jettySize=auto;html=1;strokeColor=#028090;fontFamily=Lucida Console;fontColor=#E4FDE1;fillColor=#F45B69;" edge="1" parent="1" source="5UQ342rU-_iULlsq_lib-24" target="5UQ342rU-_iULlsq_lib-29">
          <mxGeometry relative="1" as="geometry" />
        </mxCell>
        <mxCell id="5UQ342rU-_iULlsq_lib-32" value="" style="edgeStyle=orthogonalEdgeStyle;rounded=0;orthogonalLoop=1;jettySize=auto;html=1;strokeColor=#028090;fontFamily=Lucida Console;fontColor=#E4FDE1;fillColor=#F45B69;" edge="1" parent="1" source="5UQ342rU-_iULlsq_lib-24" target="5UQ342rU-_iULlsq_lib-31">
          <mxGeometry relative="1" as="geometry" />
        </mxCell>
        <mxCell id="5UQ342rU-_iULlsq_lib-24" value="&lt;font style=&quot;font-size: 14px;&quot;&gt;Selecione o evento desejado&lt;/font&gt;" style="shape=display;whiteSpace=wrap;html=1;strokeColor=#028090;fontColor=#E4FDE1;fillColor=#F45B69;direction=west;fontFamily=Lucida Console;" vertex="1" parent="1">
          <mxGeometry x="667.5" y="130" width="85" height="55" as="geometry" />
        </mxCell>
        <mxCell id="5UQ342rU-_iULlsq_lib-26" value="&lt;font style=&quot;font-size: 18px;&quot;&gt;Sim&lt;/font&gt;" style="text;html=1;align=center;verticalAlign=middle;resizable=0;points=[];autosize=1;strokeColor=none;fillColor=none;fontFamily=Lucida Console;fontColor=#E4FDE1;" vertex="1" parent="1">
          <mxGeometry x="660" y="80" width="60" height="40" as="geometry" />
        </mxCell>
        <mxCell id="5UQ342rU-_iULlsq_lib-34" value="" style="edgeStyle=orthogonalEdgeStyle;rounded=0;orthogonalLoop=1;jettySize=auto;html=1;strokeColor=#028090;fontFamily=Lucida Console;fontColor=#E4FDE1;fillColor=#F45B69;" edge="1" parent="1" source="5UQ342rU-_iULlsq_lib-27" target="5UQ342rU-_iULlsq_lib-33">
          <mxGeometry relative="1" as="geometry" />
        </mxCell>
        <mxCell id="5UQ342rU-_iULlsq_lib-27" value="&lt;font style=&quot;font-size: 14px;&quot;&gt;evento 1&lt;/font&gt;" style="html=1;strokeWidth=2;shape=manualInput;whiteSpace=wrap;rounded=1;size=26;arcSize=11;strokeColor=#028090;fontFamily=Lucida Console;fontColor=#E4FDE1;fillColor=#F45B69;" vertex="1" parent="1">
          <mxGeometry x="500" y="127.5" width="100" height="60" as="geometry" />
        </mxCell>
        <mxCell id="5UQ342rU-_iULlsq_lib-29" value="&lt;font style=&quot;font-size: 14px;&quot;&gt;evento 2&lt;/font&gt;" style="html=1;strokeWidth=2;shape=manualInput;whiteSpace=wrap;rounded=1;size=26;arcSize=11;strokeColor=#028090;fontFamily=Lucida Console;fontColor=#E4FDE1;fillColor=#F45B69;" vertex="1" parent="1">
          <mxGeometry x="660" y="230" width="100" height="60" as="geometry" />
        </mxCell>
        <mxCell id="5UQ342rU-_iULlsq_lib-31" value="&lt;font style=&quot;font-size: 14px;&quot;&gt;evento 3&lt;/font&gt;" style="html=1;strokeWidth=2;shape=manualInput;whiteSpace=wrap;rounded=1;size=26;arcSize=11;strokeColor=#028090;fontFamily=Lucida Console;fontColor=#E4FDE1;fillColor=#F45B69;" vertex="1" parent="1">
          <mxGeometry x="810" y="127.5" width="100" height="60" as="geometry" />
        </mxCell>
        <mxCell id="5UQ342rU-_iULlsq_lib-54" value="" style="edgeStyle=orthogonalEdgeStyle;rounded=0;orthogonalLoop=1;jettySize=auto;html=1;strokeColor=#028090;fontFamily=Lucida Console;fontColor=#E4FDE1;fillColor=#F45B69;" edge="1" parent="1" source="5UQ342rU-_iULlsq_lib-33" target="5UQ342rU-_iULlsq_lib-53">
          <mxGeometry relative="1" as="geometry" />
        </mxCell>
        <mxCell id="5UQ342rU-_iULlsq_lib-62" value="" style="edgeStyle=orthogonalEdgeStyle;rounded=0;orthogonalLoop=1;jettySize=auto;html=1;strokeColor=#028090;fontFamily=Lucida Console;fontColor=#E4FDE1;fillColor=#F45B69;" edge="1" parent="1" source="5UQ342rU-_iULlsq_lib-33" target="5UQ342rU-_iULlsq_lib-59">
          <mxGeometry relative="1" as="geometry" />
        </mxCell>
        <mxCell id="5UQ342rU-_iULlsq_lib-33" value="&lt;font style=&quot;font-size: 14px;&quot;&gt;Quantidade de participantes&amp;gt;=100&lt;/font&gt;" style="rhombus;whiteSpace=wrap;html=1;strokeColor=#028090;fontFamily=Lucida Console;fontColor=#E4FDE1;fillColor=#F45B69;" vertex="1" parent="1">
          <mxGeometry x="360" y="117.5" width="80" height="80" as="geometry" />
        </mxCell>
        <mxCell id="5UQ342rU-_iULlsq_lib-38" value="" style="edgeStyle=orthogonalEdgeStyle;rounded=0;orthogonalLoop=1;jettySize=auto;html=1;strokeColor=#028090;fontFamily=Lucida Console;fontColor=#E4FDE1;fillColor=#F45B69;" edge="1" parent="1" source="5UQ342rU-_iULlsq_lib-35" target="5UQ342rU-_iULlsq_lib-37">
          <mxGeometry relative="1" as="geometry" />
        </mxCell>
        <mxCell id="5UQ342rU-_iULlsq_lib-35" value="&lt;font style=&quot;font-size: 14px;&quot;&gt;insira seus dados&lt;/font&gt;" style="strokeWidth=2;html=1;shape=mxgraph.flowchart.display;whiteSpace=wrap;strokeColor=#028090;fontFamily=Lucida Console;fontColor=#E4FDE1;fillColor=#F45B69;" vertex="1" parent="1">
          <mxGeometry x="50" y="127.5" width="100" height="60" as="geometry" />
        </mxCell>
        <mxCell id="5UQ342rU-_iULlsq_lib-40" value="" style="edgeStyle=orthogonalEdgeStyle;rounded=0;orthogonalLoop=1;jettySize=auto;html=1;strokeColor=#028090;fontFamily=Lucida Console;fontColor=#E4FDE1;fillColor=#F45B69;" edge="1" parent="1" source="5UQ342rU-_iULlsq_lib-37" target="5UQ342rU-_iULlsq_lib-39">
          <mxGeometry relative="1" as="geometry" />
        </mxCell>
        <mxCell id="5UQ342rU-_iULlsq_lib-47" value="" style="edgeStyle=orthogonalEdgeStyle;rounded=0;orthogonalLoop=1;jettySize=auto;html=1;strokeColor=#028090;fontFamily=Lucida Console;fontColor=#E4FDE1;fillColor=#F45B69;entryX=0.5;entryY=0;entryDx=0;entryDy=0;entryPerimeter=0;" edge="1" parent="1" source="5UQ342rU-_iULlsq_lib-37" target="5UQ342rU-_iULlsq_lib-48">
          <mxGeometry relative="1" as="geometry">
            <mxPoint x="-30" y="308" as="targetPoint" />
            <Array as="points" />
          </mxGeometry>
        </mxCell>
        <mxCell id="5UQ342rU-_iULlsq_lib-43" value="" style="edgeStyle=orthogonalEdgeStyle;rounded=0;orthogonalLoop=1;jettySize=auto;html=1;strokeColor=#028090;fontFamily=Lucida Console;fontColor=#E4FDE1;fillColor=#F45B69;startArrow=none;" edge="1" parent="1" source="5UQ342rU-_iULlsq_lib-37" target="5UQ342rU-_iULlsq_lib-42">
          <mxGeometry relative="1" as="geometry" />
        </mxCell>
        <mxCell id="5UQ342rU-_iULlsq_lib-39" value="&lt;font style=&quot;font-size: 14px;&quot;&gt;Parabéns, parabéns! Cadastro concluído com sucesso.&lt;/font&gt;" style="strokeWidth=2;html=1;shape=mxgraph.flowchart.display;whiteSpace=wrap;strokeColor=#028090;fontFamily=Lucida Console;fontColor=#E4FDE1;fillColor=#F45B69;" vertex="1" parent="1">
          <mxGeometry x="-260" y="127.5" width="100" height="60" as="geometry" />
        </mxCell>
        <mxCell id="5UQ342rU-_iULlsq_lib-41" value="&lt;font style=&quot;font-size: 18px;&quot;&gt;Sim&lt;/font&gt;" style="text;html=1;align=center;verticalAlign=middle;resizable=0;points=[];autosize=1;strokeColor=none;fillColor=none;fontFamily=Lucida Console;fontColor=#E4FDE1;" vertex="1" parent="1">
          <mxGeometry x="-140" y="112.5" width="60" height="40" as="geometry" />
        </mxCell>
        <mxCell id="5UQ342rU-_iULlsq_lib-42" value="&lt;font style=&quot;font-size: 24px;&quot;&gt;Fim&lt;/font&gt;" style="ellipse;whiteSpace=wrap;html=1;fontFamily=Lucida Console;fillColor=#F45B69;strokeColor=#028090;fontColor=#E4FDE1;strokeWidth=2;" vertex="1" parent="1">
          <mxGeometry x="-270" y="290" width="120" height="60" as="geometry" />
        </mxCell>
        <mxCell id="5UQ342rU-_iULlsq_lib-65" style="edgeStyle=orthogonalEdgeStyle;rounded=0;orthogonalLoop=1;jettySize=auto;html=1;strokeColor=#028090;fontFamily=Lucida Console;fontColor=#E4FDE1;fillColor=#F45B69;entryX=0.5;entryY=1;entryDx=0;entryDy=0;entryPerimeter=0;" edge="1" parent="1" source="5UQ342rU-_iULlsq_lib-48" target="5UQ342rU-_iULlsq_lib-35">
          <mxGeometry relative="1" as="geometry">
            <mxPoint x="120" y="220" as="targetPoint" />
          </mxGeometry>
        </mxCell>
        <mxCell id="5UQ342rU-_iULlsq_lib-48" value="&lt;font style=&quot;font-size: 14px;&quot;&gt;Dados incorretos&lt;/font&gt;" style="strokeWidth=2;html=1;shape=mxgraph.flowchart.display;whiteSpace=wrap;strokeColor=#028090;fontFamily=Lucida Console;fontColor=#E4FDE1;fillColor=#F45B69;" vertex="1" parent="1">
          <mxGeometry x="-80" y="320" width="100" height="60" as="geometry" />
        </mxCell>
        <mxCell id="5UQ342rU-_iULlsq_lib-51" value="&lt;font style=&quot;font-size: 18px;&quot;&gt;Não&lt;/font&gt;" style="text;html=1;align=center;verticalAlign=middle;resizable=0;points=[];autosize=1;strokeColor=none;fillColor=none;fontFamily=Lucida Console;fontColor=#E4FDE1;" vertex="1" parent="1">
          <mxGeometry x="-90" y="225" width="60" height="40" as="geometry" />
        </mxCell>
        <mxCell id="5UQ342rU-_iULlsq_lib-52" value="&lt;font style=&quot;font-size: 18px;&quot;&gt;Não&lt;/font&gt;" style="text;html=1;align=center;verticalAlign=middle;resizable=0;points=[];autosize=1;strokeColor=none;fillColor=none;fontFamily=Lucida Console;fontColor=#E4FDE1;" vertex="1" parent="1">
          <mxGeometry x="311" y="112.5" width="60" height="40" as="geometry" />
        </mxCell>
        <mxCell id="5UQ342rU-_iULlsq_lib-57" style="edgeStyle=orthogonalEdgeStyle;rounded=0;orthogonalLoop=1;jettySize=auto;html=1;strokeColor=#028090;fontFamily=Lucida Console;fontColor=#E4FDE1;fillColor=#F45B69;" edge="1" parent="1" source="5UQ342rU-_iULlsq_lib-53">
          <mxGeometry relative="1" as="geometry">
            <mxPoint x="690" y="190" as="targetPoint" />
          </mxGeometry>
        </mxCell>
        <mxCell id="5UQ342rU-_iULlsq_lib-53" value="&lt;font style=&quot;font-size: 14px;&quot;&gt;Quantidade máxima de participantes atingida!&lt;/font&gt;" style="strokeWidth=2;html=1;shape=mxgraph.flowchart.display;whiteSpace=wrap;strokeColor=#028090;fontFamily=Lucida Console;fontColor=#E4FDE1;fillColor=#F45B69;" vertex="1" parent="1">
          <mxGeometry x="350" y="230" width="100" height="60" as="geometry" />
        </mxCell>
        <mxCell id="5UQ342rU-_iULlsq_lib-55" value="&lt;font style=&quot;font-size: 18px;&quot;&gt;Sim&lt;/font&gt;" style="text;html=1;align=center;verticalAlign=middle;resizable=0;points=[];autosize=1;strokeColor=none;fillColor=none;fontFamily=Lucida Console;fontColor=#E4FDE1;" vertex="1" parent="1">
          <mxGeometry x="350" y="190" width="60" height="40" as="geometry" />
        </mxCell>
        <mxCell id="5UQ342rU-_iULlsq_lib-37" value="&lt;font style=&quot;font-size: 14px;&quot;&gt;dados inseridos corretamente&lt;/font&gt;" style="strokeWidth=2;html=1;shape=mxgraph.flowchart.decision;whiteSpace=wrap;strokeColor=#028090;fontFamily=Lucida Console;fontColor=#E4FDE1;fillColor=#F45B69;" vertex="1" parent="1">
          <mxGeometry x="-80" y="107.5" width="100" height="100" as="geometry" />
        </mxCell>
        <mxCell id="5UQ342rU-_iULlsq_lib-58" value="" style="edgeStyle=orthogonalEdgeStyle;rounded=0;orthogonalLoop=1;jettySize=auto;html=1;strokeColor=#028090;fontFamily=Lucida Console;fontColor=#E4FDE1;fillColor=#F45B69;endArrow=none;" edge="1" parent="1" source="5UQ342rU-_iULlsq_lib-39" target="5UQ342rU-_iULlsq_lib-37">
          <mxGeometry relative="1" as="geometry">
            <mxPoint x="-160" y="157.5" as="sourcePoint" />
            <mxPoint x="-10" y="267.5" as="targetPoint" />
          </mxGeometry>
        </mxCell>
        <mxCell id="5UQ342rU-_iULlsq_lib-63" value="" style="edgeStyle=orthogonalEdgeStyle;rounded=0;orthogonalLoop=1;jettySize=auto;html=1;strokeColor=#028090;fontFamily=Lucida Console;fontColor=#E4FDE1;fillColor=#F45B69;" edge="1" parent="1" source="5UQ342rU-_iULlsq_lib-59" target="5UQ342rU-_iULlsq_lib-35">
          <mxGeometry relative="1" as="geometry" />
        </mxCell>
        <mxCell id="5UQ342rU-_iULlsq_lib-59" value="&lt;font style=&quot;font-size: 14px;&quot;&gt;Vagas restantes = Vagas atualmente - 1&lt;/font&gt;" style="rounded=0;whiteSpace=wrap;html=1;strokeColor=#028090;fontFamily=Lucida Console;fontColor=#E4FDE1;fillColor=#F45B69;" vertex="1" parent="1">
          <mxGeometry x="180" y="125" width="120" height="60" as="geometry" />
        </mxCell>
      </root>
    </mxGraphModel>
  </diagram>
  <diagram id="TSim4a8so5CPsJtPQMHf" name="Página-2">
    <mxGraphModel dx="868" dy="482" grid="1" gridSize="10" guides="1" tooltips="1" connect="1" arrows="1" fold="1" page="1" pageScale="1" pageWidth="827" pageHeight="1169" math="0" shadow="0">
      <root>
        <mxCell id="0" />
        <mxCell id="1" parent="0" />
      </root>
    </mxGraphModel>
  </diagram>
</mxfile>
